PathFileType	4	(X/Y/Z)	/Users/rkoike/Documents/python/sports2d/webcam_20250611_152632/webcam_20250611_152632_px_person00.trc
DataRate	CameraRate	NumFrames	NumMarkers	Units	OrigDataRate	OrigDataStartFrame	OrigNumFrames
30	30	13	22	m	30	310	2485
Frame#	Time	Hip			RHip			RKnee			RAnkle			RBigToe			RSmallToe			RHeel			LHip			LKnee			LAnkle			LBigToe			LSmallToe			LHeel			Neck			Head			Nose			RShoulder			RElbow			RWrist			LShoulder			LElbow			LWrist			
		X1	Y1	Z1	X2	Y2	Z2	X3	Y3	Z3	X4	Y4	Z4	X5	Y5	Z5	X6	Y6	Z6	X7	Y7	Z7	X8	Y8	Z8	X9	Y9	Z9	X10	Y10	Z10	X11	Y11	Z11	X12	Y12	Z12	X13	Y13	Z13	X14	Y14	Z14	X15	Y15	Z15	X16	Y16	Z16	X17	Y17	Z17	X18	Y18	Z18	X19	Y19	Z19	X20	Y20	Z20	X21	Y21	Z21	X22	Y22	Z22
310	10.337493290391839	1214.9248689657409	445.40046334676657	0.0	1214.5786799219547	647.9366945096176	0.0	1173.6017523223143	669.1264240012176	0.0	1195.270797221207	649.8278582922748	0.0	1629.8730340712614	-185.30945131413387	0.0	1423.0290591385321	67.16098945423914	0.0	1132.4947650296424	670.6602644367189	0.0	1192.0368570252876	652.2438794849556	0.0	1170.0395176205097	669.4053072892804	0.0	1199.6696837754118	637.003064036272	0.0			0.0			0.0			0.0	1293.577904030608	93.5651098391349	0.0	1301.9807887790487	41.382389586459034	0.0	1270.4068400482768	84.89803065300431	0.0	1258.0929311859513	16.746297276260588	0.0	1275.4555641297707	321.2230569819534	0.0	1205.549111489092	569.6409193534371	0.0	1251.9365753300542	8.367154302028922	0.0	1256.1704487433403	317.1153178815	0.0	1201.4301311210202	563.1127367270252	0.0
311	10.370840042941492	1214.9248689573303	445.4004632119946	0.0	1214.9225782856756	646.384910549889	0.0	1175.4670570566607	669.4299495764474	0.0	1196.2217515632935	648.4532468133772	0.0	1620.3148512497362	-164.19041533079894	0.0	1423.0289420757874	67.15894669273803	0.0	1133.748681039207	669.2861899182604	0.0	1191.97913865454	650.5451489571615	0.0	1171.243890268221	669.4038414714378	0.0	1200.3666002957116	635.983867212314	0.0			0.0			0.0			0.0	1293.578004164044	93.56531070351822	0.0	1302.427177591548	40.14005847250849	0.0	1271.2079063672281	83.9113228783008	0.0	1258.688478730017	17.381668255248044	0.0	1275.2947461652975	321.5140382878762	0.0	1206.6580373662764	569.3794654205142	0.0	1252.4317398697767	9.053743404033934	0.0	1256.6425545395732	317.3472357471152	0.0	1202.4915320008024	563.1568073256108	0.0
312	10.404186795491142	1214.9248689424435	445.4004629734479	0.0	1214.9632223592864	646.184929087408	0.0	1175.7001277236807	669.4678668355375	0.0	1196.3405715049878	648.2815037577858	0.0	1619.1201855314796	-161.55076652145348	0.0	1423.0288112035296	67.15670924822	0.0	1133.905396365892	669.1144443123301	0.0	1191.965749437951	650.3255926919254	0.0	1171.3944157429694	669.4036579960732	0.0	1200.4536515371512	635.8565334288497	0.0			0.0			0.0			0.0	1293.5781212836864	93.56559105997974	0.0	1302.4832097778165	39.98512987799846	0.0	1271.3081439026346	83.78821234251602	0.0	1258.7633821847007	17.462480365677283	0.0	1275.2814424248254	321.5592784400904	0.0	1206.793918802684	569.3502626519006	0.0	1252.4935536713954	9.140226132455625	0.0	1256.6944365459158	317.38388003904026	0.0	1202.6197972440182	563.164594144542	0.0
313	10.437533548040793	1214.9248689385895	445.4004629116888	0.0	1214.896435945139	646.2812278335786	0.0	1175.421317524994	669.4225777766205	0.0	1196.1984563767583	648.4866186287935	0.0	1620.5503537715065	-164.71058283290463	0.0	1423.0291620531204	67.16291898736661	0.0	1133.7177847958485	669.3200321511434	0.0	1191.9241736352217	650.4159763042875	0.0	1171.214159331524	669.403874578362	0.0	1200.3494586231143	636.0085727304049	0.0			0.0			0.0			0.0	1293.5778613980372	93.56506285502323	0.0	1302.415912613823	40.17064213888437	0.0	1271.1882048775772	83.93540175781555	0.0	1258.6830974519135	17.380902371915706	0.0	1275.299653098643	321.5372827788217	0.0	1206.598983830645	569.4076253612006	0.0	1252.420167486857	9.046482775371077	0.0	1256.4192464345006	317.34874721934403	0.0	1202.412514087365	563.1706221060414	0.0
314	10.470880300590444	1214.9248689400804	445.40046293557833	0.0	1214.8500822870928	646.1571980586909	0.0	1175.2735340235233	669.3987425802637	0.0	1196.1231728184614	648.594745340025	0.0	1621.3127555983597	-166.3948036174379	0.0	1423.0304924917423	67.18606377527686	0.0	1133.6177914400507	669.4296135773978	0.0	1191.8586868709692	650.2526205725006	0.0	1171.1180413720012	669.4039891037352	0.0	1200.2943451566805	636.0886331640936	0.0			0.0			0.0			0.0	1293.576785577672	93.5626133082665	0.0	1302.377972762441	40.267058814676616	0.0	1271.123540396363	84.01201286597069	0.0	1258.6512822124998	17.350471955221806	0.0	1275.2633992546387	321.51032944628184	0.0	1206.4654363972256	569.4472418672716	0.0	1252.3825383749524	9.006647101304301	0.0	1255.9979315084881	317.28767852349023	0.0	1202.2516981218137	563.1807803626848	0.0
315	10.504227053140095	1214.924868941386	445.40046295649955	0.0	1214.8940179003125	646.4000110451092	0.0	1175.2735533784653	669.3987295818392	0.0	1196.1231554288315	648.5951080565281	0.0	1621.3144626203368	-166.39887939247822	0.0	1423.0312114529627	67.19802856399293	0.0	1133.617546230319	669.429878547506	0.0	1191.9878649319573	650.5449527964263	0.0	1171.1179856666124	669.4039998321584	0.0	1200.2946583564094	636.0889149873319	0.0			0.0			0.0			0.0	1293.576081310472	93.5606865801338	0.0	1302.3761949197617	40.26427570604794	0.0	1271.1223839999304	84.01065142540533	0.0	1258.6346778916554	17.318262560559138	0.0	1275.2031192768911	321.3925889770462	0.0	1206.5313873695811	569.388019658022	0.0	1252.3822672133385	8.987784006461432	0.0	1256.3432872501187	317.2114403551733	0.0	1202.3605407413186	563.1410376688981	0.0
316	10.537573805689746	1214.9248689415765	445.4004629595526	0.0	1215.0799296182079	648.1094261175812	0.0	1175.2980516211362	669.4015928176746	0.0	1196.1352941320474	648.5817809151036	0.0	1621.1659522242883	-166.07298629044993	0.0	1423.0257738772284	67.10241074731468	0.0	1133.6368648842872	669.4086724079858	0.0	1192.5918619747415	652.6082974168422	0.0	1171.1372674244374	669.4040091149762	0.0	1200.3038682251706	636.0796209473833	0.0			0.0			0.0			0.0	1293.580243361847	93.569563590538	0.0	1302.3919240397652	40.25305916244412	0.0	1271.1368639155032	84.0031773532058	0.0	1258.5320216279122	17.163255153818476	0.0	1275.3390105765673	321.1937339119087	0.0	1206.9057193730132	569.1753271580424	0.0	1252.3800095654271	8.886202480980648	0.0	1258.9776337525623	317.2898834009769	0.0	1202.9750258975962	562.9962191116709	0.0
317	10.570920558239397	1214.9248689413914	445.4004629565841	0.0	1215.1980354188606	650.1339020285941	0.0	1175.2985345673849	669.3996335870903	0.0	1196.1350180458608	648.5884187663762	0.0	1621.1108771787435	-165.95397936227118	0.0	1423.011840907888	66.86086634263064	0.0	1133.6438935109863	669.4009264404249	0.0	1193.0735962008664	655.0515218102938	0.0	1171.1444660004781	669.4040075533434	0.0	1200.3025937943464	636.085585369407	0.0			0.0			0.0			0.0	1293.591693379972	93.59615667111845	0.0	1302.4197665131244	40.276512047057494	0.0	1271.1504925456234	84.02017436141739	0.0	1258.4084777751443	17.019622088330472	0.0	1275.907326183834	321.4126028872248	0.0	1207.2483139239848	569.0827265438144	0.0	1252.3650124431506	8.773995922091435	0.0	1262.1747171319807	317.8216529789645	0.0	1203.5530238687027	562.9247667534084	0.0
318	10.604267310789048	1214.9248689412855	445.40046295488924	0.0	1214.4945887947283	645.117908624963	0.0	1175.300462128546	669.4018387467453	0.0	1196.1368071139852	648.5760527033635	0.0	1621.119105018691	-165.9657583219533	0.0	1423.0133165918935	66.89334865069078	0.0	1133.643282710256	669.401699892157	0.0	1190.8937131635955	649.0079913124516	0.0	1171.1410123398662	669.4038580172594	0.0	1200.300278890399	636.0753847365863	0.0			0.0			0.0			0.0	1293.5920462424106	93.60100736836242	0.0	1302.4221502756593	40.29403898956495	0.0	1271.1564229432554	84.02369161961246	0.0	1258.7399658536342	17.583282851485873	0.0	1276.2746885399683	322.8608977973633	0.0	1206.0578117479388	569.976654748318	0.0	1252.381732338601	9.127543006569754	0.0	1254.7839822960086	318.4400362994552	0.0	1201.576884615136	563.5325920278327	0.0
319	10.637614063338699	1214.9248689412825	445.4004629548442	0.0	1212.5741255674777	625.266465106669	0.0	1175.3571787670476	669.4250447004802	0.0	1196.1699110630627	648.4778824254064	0.0	1621.1312802729633	-165.96687985450635	0.0	1423.0872548616296	68.18817582953646	0.0	1133.6435731523582	669.4018013947461	0.0	1184.3179137296243	625.0744442332593	0.0	1171.1335949931406	669.4035401567334	0.0	1200.3231717668414	635.9953238158955	0.0			0.0			0.0			0.0	1293.534238960737	93.47435418251257	0.0	1302.297747632806	40.17034512371542	0.0	1271.1218664001328	83.91414188444548	0.0	1260.0142255729359	19.39947639125306	0.0	1274.0607399649173	324.4849672012102	0.0	1202.094486733747	572.1287881205919	0.0	1252.504622399503	10.388242396139207	0.0	1224.5226440143633	316.89814707401445	0.0	1194.9272835965694	565.0458908896403	0.0
320	10.67096081588835	1214.9248689413023	445.4004629551595	0.0	1211.0048175619734	597.9971700959799	0.0	1175.4501943421496	669.4568968286101	0.0	1196.2211187997148	648.3588497073869	0.0	1621.1336140089918	-165.95607365251348	0.0	1423.2192490236166	70.46578561586492	0.0	1133.6444358463466	669.4011159765007	0.0	1177.8285000782212	592.1799067849886	0.0	1171.1345415111095	669.4037072678462	0.0	1200.3766364894868	635.8986121235076	0.0			0.0			0.0			0.0	1293.4233478251908	93.21057280373908	0.0	1302.0498138669554	39.85019165443503	0.0	1271.024577218356	83.69165371395457	0.0	1261.7162591163865	21.380986392440434	0.0	1266.497505062523	321.64612856985235	0.0	1197.579149911622	573.373499759345	0.0	1252.7419030850674	11.948684031741896	0.0	1181.7255828714492	309.83863678847484	0.0	1187.2473059231647	566.0227085353041	0.0
321	10.704307568438002	1214.92486894131	445.4004629552848	0.0	1212.106262387891	581.7700937554271	0.0	1175.323664564787	669.3964755615368	0.0	1196.1423661917197	648.6447130577482	0.0	1621.1394712616561	-166.07054655462252	0.0	1423.090746500045	68.15142584499847	0.0	1133.6362330008178	669.4084515888977	0.0	1178.8054507173763	572.569503422085	0.0	1171.1661892832942	669.4056556532444	0.0	1200.355980669143	636.1317500095272	0.0			0.0			0.0			0.0	1293.5092958020462	93.3595840845437	0.0	1302.2142679440965	39.88598117927026	0.0	1271.0121234591047	83.8378153959018	0.0	1262.6387325808325	21.580662605306728	0.0	1253.3569459025773	310.27850994752555	0.0	1196.6549188568843	570.8507988490209	0.0	1253.0125994292664	12.548423312649238	0.0	1153.8653652513326	296.2412866893498	0.0	1185.4346082607103	564.4987723951381	0.0
322	10.737654320987653	1214.9248689413091	445.40046295526935	0.0	1216.0203064989814	582.6850936614057	0.0	1174.6061000483244	669.1191758642397	0.0	1195.7303178635843	649.7948321535108	0.0	1621.157933980922	-166.38446046610855	0.0	1422.1741736669915	52.15256119714346	0.0	1133.6138121481397	669.4285735786015	0.0	1188.1002675512932	573.5704743368873	0.0	1171.2186433163324	669.4084820392445	0.0	1200.0425554797646	637.0676612395263	0.0			0.0			0.0			0.0	1294.2377933256437	94.98787595400056	0.0	1303.7898686650658	41.591006118077324	0.0	1271.483842565477	85.25184734509524	0.0	1262.448372172896	19.648050756447542	0.0	1236.7661334778659	291.63862474672425	0.0	1200.06668623803	564.5377521596711	0.0	1253.2735038545982	11.855631844966432	0.0	1150.060946718075	278.7861853193404	0.0	1190.7770537913184	560.3951729449323	0.0
